<mxfile host="65bd71144e">
    <diagram id="CXXSiYioIeRtVV1KvOWu" name="Page-1">
        <mxGraphModel dx="1171" dy="810" grid="0" gridSize="10" guides="1" tooltips="1" connect="1" arrows="1" fold="1" page="1" pageScale="1" pageWidth="2336" pageHeight="1654" math="0" shadow="0">
            <root>
                <mxCell id="0"/>
                <mxCell id="1" parent="0"/>
                <mxCell id="2" value="order" style="swimlane;childLayout=stackLayout;resizeParent=1;resizeParentMax=0;horizontal=0;startSize=20;horizontalStack=0;fillColor=#60a917;strokeColor=#2D7600;fontColor=#ffffff;fontSize=13;" parent="1" vertex="1">
                    <mxGeometry x="83" y="80" width="2170" height="970" as="geometry"/>
                </mxCell>
                <mxCell id="3" value="Customer" style="swimlane;startSize=20;horizontal=0;" parent="2" vertex="1">
                    <mxGeometry x="20" width="2150" height="200" as="geometry"/>
                </mxCell>
                <mxCell id="112" value="" style="edgeStyle=none;html=1;" edge="1" parent="3" source="22" target="111">
                    <mxGeometry relative="1" as="geometry"/>
                </mxCell>
                <mxCell id="22" value="&lt;font style=&quot;font-size: 18px&quot;&gt;شروع&lt;/font&gt;" style="ellipse;whiteSpace=wrap;html=1;aspect=fixed;fontSize=13;fillColor=#0050ef;strokeColor=#001DBC;fontColor=#ffffff;" parent="3" vertex="1">
                    <mxGeometry x="78" y="60" width="80" height="80" as="geometry"/>
                </mxCell>
                <mxCell id="114" value="" style="edgeStyle=none;html=1;fontSize=23;" edge="1" parent="3" source="111" target="113">
                    <mxGeometry relative="1" as="geometry"/>
                </mxCell>
                <mxCell id="111" value="&lt;font style=&quot;font-size: 23px&quot;&gt;درخواست فاکتور رسمی&lt;/font&gt;" style="whiteSpace=wrap;html=1;fontSize=13;fillColor=#60a917;strokeColor=#2D7600;fontColor=#ffffff;" vertex="1" parent="3">
                    <mxGeometry x="220" y="66" width="197" height="68" as="geometry"/>
                </mxCell>
                <mxCell id="113" value="&lt;span style=&quot;font-size: 23px&quot;&gt;وارد کردن مشخصات&amp;nbsp;&lt;/span&gt;" style="whiteSpace=wrap;html=1;fontSize=13;fillColor=#60a917;strokeColor=#2D7600;fontColor=#ffffff;" vertex="1" parent="3">
                    <mxGeometry x="497" y="66" width="197" height="68" as="geometry"/>
                </mxCell>
                <mxCell id="115" value="&lt;span style=&quot;font-size: 23px&quot;&gt;ثبت درخواست&amp;nbsp;&lt;/span&gt;" style="whiteSpace=wrap;html=1;fontSize=13;fillColor=#60a917;strokeColor=#2D7600;fontColor=#ffffff;" vertex="1" parent="3">
                    <mxGeometry x="763" y="66" width="197" height="68" as="geometry"/>
                </mxCell>
                <mxCell id="116" value="" style="edgeStyle=none;html=1;fontSize=23;" edge="1" parent="3" source="113" target="115">
                    <mxGeometry relative="1" as="geometry"/>
                </mxCell>
                <mxCell id="125" style="edgeStyle=none;html=1;exitX=1;exitY=0.5;exitDx=0;exitDy=0;entryX=0;entryY=0.5;entryDx=0;entryDy=0;fontSize=23;" edge="1" parent="3" source="123" target="29">
                    <mxGeometry relative="1" as="geometry"/>
                </mxCell>
                <mxCell id="123" value="&lt;span style=&quot;font-size: 23px&quot;&gt;دانلود فاکتور&amp;nbsp;&lt;/span&gt;" style="whiteSpace=wrap;html=1;fontSize=13;fillColor=#60a917;strokeColor=#2D7600;fontColor=#ffffff;" vertex="1" parent="3">
                    <mxGeometry x="1317" y="66" width="197" height="68" as="geometry"/>
                </mxCell>
                <mxCell id="29" value="&lt;font style=&quot;font-size: 23px&quot;&gt;پایان&lt;/font&gt;" style="ellipse;whiteSpace=wrap;html=1;fillColor=#0050ef;strokeColor=#001DBC;fontColor=#ffffff;" parent="3" vertex="1">
                    <mxGeometry x="1995" y="66" width="73" height="70" as="geometry"/>
                </mxCell>
                <mxCell id="20" value="Postex" style="swimlane;startSize=20;horizontal=0;fillColor=#60a917;strokeColor=#2D7600;fontColor=#ffffff;" parent="2" vertex="1">
                    <mxGeometry x="20" y="200" width="2150" height="435" as="geometry"/>
                </mxCell>
                <mxCell id="120" value="" style="edgeStyle=none;html=1;fontSize=23;" edge="1" parent="20" source="117" target="119">
                    <mxGeometry relative="1" as="geometry"/>
                </mxCell>
                <mxCell id="117" value="&lt;span style=&quot;font-size: 23px&quot;&gt;ارسال تیکت برای بخش مالی&lt;/span&gt;" style="whiteSpace=wrap;html=1;fontSize=13;fillColor=#60a917;strokeColor=#2D7600;fontColor=#ffffff;" vertex="1" parent="20">
                    <mxGeometry x="763" y="71" width="197" height="68" as="geometry"/>
                </mxCell>
                <mxCell id="122" value="" style="edgeStyle=none;html=1;fontSize=23;" edge="1" parent="20" source="119" target="121">
                    <mxGeometry relative="1" as="geometry"/>
                </mxCell>
                <mxCell id="119" value="&lt;span style=&quot;font-size: 23px&quot;&gt;تایید درخواست توسط مالی&amp;nbsp;&lt;/span&gt;" style="whiteSpace=wrap;html=1;fontSize=13;fillColor=#60a917;strokeColor=#2D7600;fontColor=#ffffff;" vertex="1" parent="20">
                    <mxGeometry x="1040" y="71" width="197" height="68" as="geometry"/>
                </mxCell>
                <mxCell id="121" value="&lt;span style=&quot;font-size: 23px&quot;&gt;ایجاد فاکتور در پنل مشتری&lt;/span&gt;" style="whiteSpace=wrap;html=1;fontSize=13;fillColor=#60a917;strokeColor=#2D7600;fontColor=#ffffff;" vertex="1" parent="20">
                    <mxGeometry x="1317" y="71" width="197" height="68" as="geometry"/>
                </mxCell>
                <mxCell id="58" value="Vendor" style="swimlane;startSize=20;horizontal=0;" parent="2" vertex="1">
                    <mxGeometry x="20" y="635" width="2150" height="335" as="geometry"/>
                </mxCell>
                <mxCell id="118" value="" style="edgeStyle=none;html=1;fontSize=23;" edge="1" parent="2" source="115" target="117">
                    <mxGeometry relative="1" as="geometry"/>
                </mxCell>
                <mxCell id="124" value="" style="edgeStyle=none;html=1;fontSize=23;" edge="1" parent="2" source="121" target="123">
                    <mxGeometry relative="1" as="geometry"/>
                </mxCell>
            </root>
        </mxGraphModel>
    </diagram>
</mxfile>